<svg width="200" height="150" viewBox="0 0 200 150" fill="none" xmlns="http://www.w3.org/2000/svg">
  <rect width="200" height="150" fill="#0f172a"/>

  <!-- Evaluation/Assessment illustration -->
  <g transform="translate(20, 20)">
    <!-- Clipboard -->
    <rect x="40" y="20" width="80" height="100" rx="4" fill="#1e293b" stroke="#475569" stroke-width="2"/>
    <rect x="45" y="10" width="70" height="15" rx="7" fill="#64748b"/>

    <!-- Checkmarks -->
    <path d="M55 40 L60 45 L70 35" stroke="#22c55e" stroke-width="2" fill="none"/>
    <path d="M55 55 L60 60 L70 50" stroke="#22c55e" stroke-width="2" fill="none"/>
    <path d="M55 70 L60 75 L70 65" stroke="#22c55e" stroke-width="2" fill="none"/>

    <!-- Child figure -->
    <circle cx="140" cy="70" r="15" fill="#fbbf24"/>
    <rect x="128" y="85" width="24" height="35" rx="4" fill="#3b82f6"/>

    <!-- Star (free class indicator) -->
    <path d="M160 30 L162 36 L168 36 L163 40 L165 46 L160 42 L155 46 L157 40 L152 36 L158 36 Z" fill="#fbbf24"/>
  </g>
</svg>